<?xml version="1.0" encoding="utf-8"?>
<!-- Generator: Adobe Illustrator 24.0.3, SVG Export Plug-In . SVG Version: 6.00 Build 0)  -->
<svg version="1.1" xmlns="http://www.w3.org/2000/svg" xmlns:xlink="http://www.w3.org/1999/xlink" x="0px" y="0px"
	 viewBox="0 0 5669.3 2834.6" style="enable-background:new 0 0 5669.3 2834.6;" xml:space="preserve">
<style type="text/css">
	.st0{fill-rule:evenodd;clip-rule:evenodd;fill:#134373;}
	.st1{fill-rule:evenodd;clip-rule:evenodd;fill:#01A0C6;}
</style>
<g id="Livello_1">
</g>
<g id="Layer_1">
	<path class="st0" d="M683.8,283.7H4100c85.9,0,164,35.1,220.6,91.7c56.6,56.6,91.7,134.7,91.7,220.6v1073.9h0h-113.9l0,0V596
		c0-54.5-22.3-104.1-58.3-140.1c-36-36-85.6-58.3-140.1-58.3H683.8c-54.5,0-104.1,22.3-140.1,58.3c-36,36-58.3,85.6-58.3,140.1
		v1101.9c5.3,18.3,19.6,32.8,37.8,38.4l286.6,3.6l0.7-1.1l-0.3,1.1l3602.1,45.7l318.5,4v41.1l-301.2,2.1l0,0l-131.2,0.9
		l-3611.9,24.9l-201.1,1.4v0.2h-33.5h-23.5h-17c-19.2-5.1-34.4-20-39.9-39V596c0-85.9,35.1-164,91.7-220.6
		C519.7,318.8,597.8,283.7,683.8,283.7L683.8,283.7z M485.4,1974.1L485.4,1974.1v215.8c0,54.5,22.3,104.1,58.3,140.1
		c36,36,85.6,58.3,140.1,58.3H4100c54.5,0,104.1-22.3,140.1-58.3c36-36,58.3-85.6,58.3-140.1v-215.8l0,0h113.9h0v215.8
		c0,85.9-35.1,164-91.7,220.6c-56.6,56.6-134.7,91.7-220.6,91.7H683.8c-85.9,0-164-35.1-220.6-91.7
		c-56.6-56.6-91.7-134.7-91.7-220.6v-215.8l0,0H485.4z"/>
	<path class="st1" d="M1392,1606v-73.3c0-11.6-9.3-17.5-24.4-17.5h-61.7c-41.9,0-45.4-7-45.4-65.2v-365.5h104.8
		c12.8,0,23.3-10.5,23.3-23.3v-68.7c0-12.8-10.5-23.3-23.3-23.3h-104.8V849.4c0-11.6-8.1-17.5-18.6-17.5c-1.2,0-3.5,0-4.7,0
		l-108.3,18.6c-12.8,2.3-23.3,10.5-23.3,23.3v95.4H996.2c-12.8,0-23.3,10.5-23.3,23.3v52.4c0,12.8,10.5,21,23.3,23.3l109.4,16.3
		V1450c0,156,53.5,185.1,185.1,185.1c25.6,0,51.2-3.5,79.1-8.2C1385,1624.6,1392,1617.6,1392,1606L1392,1606z M1834.3,1068.2v-83.8
		c0-12.8-10.5-23.3-23.3-23.3c-46.6,0-109.4,11.6-166.5,55.9v-24.4c0-12.8-10.5-23.3-23.3-23.3H1520c-12.8,0-23.3,10.5-23.3,23.3
		v608.8c0,12.8,10.5,24.4,23.3,24.4h107.1c12.8,0,23.3-11.6,23.3-24.4v-467.9c48.9-25.6,97.8-41.9,160.6-41.9
		C1823.8,1091.5,1834.3,1081,1834.3,1068.2L1834.3,1068.2L1834.3,1068.2z M2391.9,1602.5v-419c0-149-90.8-222.3-256.1-222.3
		c-80.3,0-147.9,9.3-194.4,18.6c-15.1,3.5-22.1,11.7-22.1,24.5v74.5c0,16.3,9.3,19.8,20.9,19.8c1.2,0,3.5,0,5.8,0
		c38.4-4.6,115.2-9.3,189.7-9.3c68.7,0,102.4,18.6,102.4,94.3v51.2h-73.3c-202.5,0-284,68.7-284,201.4v4.6
		c0,157.1,104.8,194.4,201.4,194.4c55.9,0,110.6-18.6,164.1-51.2v18.6c0,12.8,10.5,23.3,23.3,23.3h98.9
		C2381.4,1625.8,2391.9,1615.3,2391.9,1602.5L2391.9,1602.5L2391.9,1602.5z M2238.2,1480.3c-33.8,18.6-76.8,32.6-118.7,32.6
		c-58.2,0-83.8-15.2-83.8-72.2v-4.6c0-65.2,23.3-99,129.2-99h73.3V1480.3L2238.2,1480.3z M3051.8,987.9c0-10.5-8.1-18.6-18.6-18.6
		h-116.4c-10.5,0-21,8.2-24.4,23.3l-111.7,487.7c-4.6,22.1-12.8,29.1-22.1,29.1c-9.3,0-17.5-7-22.1-29.1l-111.7-487.7
		c-3.5-15.1-12.8-23.3-23.3-23.3H2485c-10.5,0-18.6,8.2-18.6,18.6c0,2.3,0,5.8,1.2,8.1l146.7,529.6c23.3,86.1,85,109.4,144.4,109.4
		c59.4,0,122.2-23.3,145.5-109.4L3050.7,996C3051.8,993.7,3051.8,990.2,3051.8,987.9L3051.8,987.9z M3668.8,1322v-65.2
		c0-173.4-97.8-295.6-277-295.6c-178.1,0-279.4,114-279.4,295.6v86.1c0,229.3,165.3,292.2,281.7,292.2c104.7,0,150.2-5.8,225.8-19.8
		c20.9-3.5,24.4-11.6,24.4-30.3v-76.8c0-11.6-9.3-17.5-20.9-17.5c-1.2,0-2.3,0-3.5,0c-48.9,4.7-129.2,11.7-214.2,11.7
		c-111.7,0-139.7-80.3-139.7-147.8v-3.5h379.4C3661.8,1351.1,3668.8,1340.6,3668.8,1322L3668.8,1322z M3514,1241.6h-246.8v-4.6
		c0-92,52.4-143.2,124.6-143.2c72.2,0,122.2,52.4,122.2,143.2V1241.6L3514,1241.6z M3959.8,1601.3V763.2c0-12.8-9.3-23.3-22.1-23.3
		h-108.3c-12.8,0-23.3,10.5-23.3,23.3v838.1c0,12.8,10.5,24.4,23.3,24.4h108.3C3950.5,1625.8,3959.8,1614.1,3959.8,1601.3z"/>
	<path class="st0" d="M1105.7,2150.4l18.5-1.7c0.9,7.8,2.9,14.2,6.1,19.2c3.2,5,8.2,9,15,12.1c6.8,3.1,14.4,4.6,22.9,4.6
		c7.5,0,14.1-1.2,19.9-3.5c5.8-2.3,10-5.6,12.8-9.6c2.8-4.1,4.2-8.5,4.2-13.3c0-4.8-1.3-9-4.1-12.7c-2.7-3.6-7.2-6.6-13.4-9.1
		c-4-1.6-12.8-4.1-26.5-7.5c-13.7-3.4-23.3-6.6-28.7-9.7c-7.1-3.9-12.4-8.7-15.8-14.4c-3.5-5.7-5.2-12.2-5.2-19.3
		c0-7.9,2.1-15.2,6.4-21.9c4.3-6.8,10.5-12,18.7-15.5c8.2-3.5,17.3-5.3,27.3-5.3c11,0,20.8,1.8,29.2,5.6c8.4,3.7,14.9,9.1,19.4,16.3
		c4.5,7.2,7,15.3,7.3,24.4l-18.9,1.5c-1-9.8-4.4-17.1-10.3-22.1c-5.9-5-14.5-7.5-26-7.5c-11.9,0-20.6,2.3-26.1,6.8
		c-5.5,4.5-8.2,10-8.2,16.4c0,5.5,2,10.1,5.8,13.7c3.8,3.6,13.7,7.3,29.7,11c16,3.8,27,7.1,33,9.9c8.6,4.1,15,9.4,19.2,15.7
		c4.1,6.3,6.2,13.7,6.2,21.9c0,8.3-2.3,16-6.8,23.2c-4.5,7.3-11,12.9-19.5,17c-8.5,4-18,6-28.7,6c-13.4,0-24.7-2-33.8-6.1
		c-9.1-4.1-16.2-10.2-21.4-18.4C1108.6,2170,1105.9,2160.7,1105.7,2150.4L1105.7,2150.4z M1654.5,2200.1v-154.8h19.8V2182h73.2v18.2
		H1654.5L1654.5,2200.1z M2161.7,2124.8c0-25.6,6.7-45.8,19.9-60.3c13.3-14.5,30.4-21.8,51.4-21.8c13.8,0,26.1,3.4,37.2,10.2
		c11,6.8,19.4,16.3,25.2,28.5c5.8,12.2,8.7,26,8.7,41.5c0,15.7-3,29.7-9.2,42.1c-6.1,12.4-14.7,21.8-25.9,28.1
		c-11.2,6.4-23.3,9.5-36.2,9.5c-14,0-26.5-3.5-37.6-10.6c-11-7-19.4-16.6-25.1-28.8C2164.6,2151.2,2161.7,2138.4,2161.7,2124.8
		L2161.7,2124.8z M2182.1,2125.1c0,18.6,4.8,33.3,14.5,44c9.6,10.7,21.7,16.1,36.3,16.1c14.8,0,27-5.4,36.6-16.2
		c9.6-10.8,14.3-26.2,14.3-46c0-12.6-2-23.6-6.1-32.9c-4.1-9.4-10.1-16.6-17.9-21.8c-7.9-5.2-16.7-7.7-26.6-7.7
		c-13.9,0-25.9,5-36,14.9C2187.1,2085.3,2182.1,2101.9,2182.1,2125.1L2182.1,2125.1z M2803.7,2139.4v-18.2h63v57.4
		c-9.7,8-19.7,14-29.9,18.1c-10.3,4-20.9,6-31.7,6c-14.6,0-27.9-3.2-39.9-9.8c-11.9-6.5-21-15.9-27-28.2
		c-6.1-12.3-9.2-26.1-9.2-41.3c0-15.1,3-29.1,9.1-42.2c6.1-13,14.8-22.7,26.1-29c11.4-6.3,24.5-9.5,39.3-9.5
		c10.7,0,20.5,1.8,29.2,5.4c8.7,3.6,15.5,8.7,20.4,15.1c5,6.5,8.7,15,11.3,25.4l-17.8,5c-2.2-7.9-5-14.1-8.3-18.6
		c-3.3-4.5-8.1-8.1-14.2-10.8c-6.1-2.7-13-4.1-20.5-4.1c-9,0-16.7,1.4-23.3,4.3c-6.5,2.8-11.8,6.6-15.9,11.3
		c-4,4.6-7.1,9.8-9.4,15.3c-3.8,9.6-5.7,20-5.7,31.2c0,13.8,2.3,25.4,6.8,34.7c4.6,9.3,11.2,16.2,19.9,20.7c8.7,4.5,18,6.8,27.8,6.8
		c8.5,0,16.9-1.7,25-5.2c8.1-3.5,14.3-7.1,18.4-11v-29H2803.7L2803.7,2139.4z M3272.5,2200.1l57.1-154.8h21.7l60.6,154.8h-22.4
		l-17.2-46.9h-62.7l-16.1,46.9H3272.5L3272.5,2200.1z M3315.3,2136.6h50.7l-15.5-42.9c-4.7-13-8.2-23.8-10.7-32.3
		c-2,10.1-4.8,20-8.2,29.8L3315.3,2136.6L3315.3,2136.6z M3820.3,2200.1v-154.8h20.3l78.1,121.5v-121.5h18.9v154.8h-20.2
		l-78.1-121.5v121.5H3820.3z"/>
	<g>
		<path class="st0" d="M4799.1,1515.8l28.5,59.4l79.9,166.2l4.2,8.7c0.1,0.5,0.1,1,0.1,1.6c0,5.2-3.4,9.5-8,11
			c-57.7,1.4-115.4,3.6-173,6.6l-58.8-69.6l-0.1-0.1l0,0c-1.8-2.1-4.5-3.5-7.5-3.5h-47c-4.8,0-8.8,3.4-9.7,7.9l44.2,82.5v16h-34.4
			c-5,0-9.2,4.1-9.2,9.2c0,5,4.1,9.2,9.2,9.2h34.4v16l-44.2,82.5c0.9,4.5,4.9,7.9,9.7,7.9h47c3,0,5.7-1.4,7.5-3.5l0,0l0.1-0.1
			l58.8-69.6c57.7,3,115.3,5.2,173,6.6l0,0c4.7,1.5,8,5.8,8,11c0,0.5,0,1.1-0.1,1.6l5.9-12.2l-10.1,20.9l-79.9,166.2l-28.5,59.4
			c0,6.7,5.5,12.2,12.2,12.2h66.3l0.2,0h0.2l0.2,0l0.2,0l0.2,0l0.2,0l0.2,0l0.2,0l0.2,0l0.2,0l0.2,0l0.2,0l0.2,0l0.2,0l0.2,0l0.2,0
			l0.2,0l0.2,0l0.2-0.1l0.2,0l0.2-0.1l0.2-0.1l0.2-0.1l0.2-0.1l0,0l0.2-0.1l0,0l0.2-0.1l0.2-0.1l0.2-0.1l0.2-0.1l0,0l0.1-0.1
			l0.2-0.1l0,0l0.2-0.1l0.1-0.1l0.1-0.1l0.2-0.1l0,0l0.1-0.1l0,0l0.1-0.1l0,0l0.1-0.1l0.1-0.1l0.1-0.1l0,0l0.1-0.1l0.1-0.1l0,0
			l0.1-0.1l0,0l0.1-0.1l0,0l0.1-0.1l0.1-0.1l0.1-0.1l0,0l0.1-0.1l0,0l0.1-0.1l0,0l0.1-0.1l0,0l0.1-0.1l0,0l0.1-0.1l0,0l0.1-0.1l0,0
			l0.1-0.1l0,0l0.1-0.1l0,0l0.1-0.1l0,0c0.1-0.1,0.2-0.2,0.2-0.3l0,0c0.1-0.1,0.2-0.3,0.3-0.4l0,0c0.1-0.1,0.2-0.3,0.3-0.4
			l69.7-91.8l20.1-26.5c2.6-2.6,6.2-4.2,10.2-4.2h53.5c3.8,0,6.9-3.1,6.9-6.9v-51.7c0-3.8-3.1-6.9-6.9-6.9h-5.8
			c-1.2-0.8-2-2.1-2-3.6c0-0.1,0-0.2,0-0.3l43.8-57.7c1.9-1.6,4.3-2.6,6.9-2.8h-0.1h0.1c13.2-0.1,26.5-0.2,39.7-0.3
			c28.5,3.3,112-15.3,146-45.6c1-1.4,1.6-3.1,1.6-4.9s-0.6-3.5-1.6-4.9c-34-30.2-117.5-48.9-146-45.6c-13.2-0.1-26.5-0.2-39.7-0.3
			c-2.6-0.1-5-1.1-6.9-2.8l2.1,2.7l-4.5,0l4.5,0l-20.2-26.6l-28.7-37.8l3,4c0-0.1,0-0.2,0-0.3c0-1.5,0.8-2.9,2-3.6h5.8
			c3.8,0,6.9-3.1,6.9-6.9v-51.7c0-3.8-3.1-6.9-6.9-6.9h-53.5c-4,0-7.6-1.6-10.2-4.2l-89.8-118.3l0,0c-2.2-2.9-5.8-4.8-9.7-4.8h-66.3
			C4804.6,1503.6,4799.1,1509.1,4799.1,1515.8L4799.1,1515.8z M4917.6,1762.3l-13.8,0.3l0.2,0l0.2,0h0.2l0.2,0l0.2,0l0.2,0h0.2h0
			l0.2,0l0.2,0h0.2l0.2,0l0.2,0h0.2l0.2,0l0.2,0l0.4,0l0.2,0h0.2l0.2,0l0.2,0h0l0.2,0h0.2l0.2,0l0.4,0h0.2l0.2,0l0.2,0h0.2h0.2
			l0.2,0h0.2l0.2,0l0.1,0h0.1h0.2l0.2,0l0.2,0h0.2l0.2,0l0.2,0h0.2l0.4,0h0.2l0.4,0h0.2h0.1l0.2,0l0.9,0h0.2l0.2,0l1.1,0l0.2,0
			l0.2,0h0h0.2L4917.6,1762.3l2.5-0.1L4917.6,1762.3L4917.6,1762.3z M5078.8,1862.3l4.8,0h0h-0.1h-0.1h-0.1h-0.1h-0.1h-0.1h-0.1
			h-0.1h-0.1h-0.1h0h0h-0.1h-0.1h-0.1h-0.1h-0.1h-0.1h-0.1h-0.1h-0.1h0h0h-0.1l-0.1,0h-0.1h-0.1h-0.1h-0.1h-0.1h-0.1h-0.1h0h0h-0.1
			h-0.1h-0.1h-0.1h-0.1h-0.1h-0.1h-0.1h-0.1h0h0h-0.1h-0.1h-0.1h-0.1h-0.1h-0.1h-0.1h-0.1h-0.1h-0.1h0h-0.1h-0.1h-0.1l-0.1,0h-0.1
			h-0.1h-0.1h-0.1h-0.1h-0.1l0,0H5078.8L5078.8,1862.3l-4.4,0L5078.8,1862.3L5078.8,1862.3z M4933.2,1762c4-0.1,8.1-0.2,12.1-0.2
			C4941.3,1761.9,4937.3,1761.9,4933.2,1762L4933.2,1762z M5031.4,1760.8c4.1,0,8.1,0,12.2,0
			C5039.5,1760.8,5035.4,1760.8,5031.4,1760.8L5031.4,1760.8z M5023.4,1862.3c-3.4,0-6.7,0-10.1-0.1
			C5016.7,1862.2,5020.1,1862.3,5023.4,1862.3L5023.4,1862.3z M5031.4,1862.3l12.2,0C5039.5,1862.3,5035.4,1862.3,5031.4,1862.3z"/>
	</g>
</g>
</svg>
